<?xml version="1.0" encoding="UTF-8" standalone="no"?>
<!-- Created with Inkscape (http://www.inkscape.org/) -->

<svg
   xmlns:dc="http://purl.org/dc/elements/1.1/"
   xmlns:cc="http://creativecommons.org/ns#"
   xmlns:rdf="http://www.w3.org/1999/02/22-rdf-syntax-ns#"
   xmlns:svg="http://www.w3.org/2000/svg"
   xmlns="http://www.w3.org/2000/svg"
   xmlns:sodipodi="http://sodipodi.sourceforge.net/DTD/sodipodi-0.dtd"
   xmlns:inkscape="http://www.inkscape.org/namespaces/inkscape"
   id="svg4598"
   version="1.1"
   inkscape:version="0.91 r13725"
   xml:space="preserve"
   width="213.66901"
   height="117.1355"
   viewBox="0 0 213.66901 117.1355"
   sodipodi:docname="waves-bg-cropped.svg"
   preserveAspectRatio="xMinYMin meet"><metadata
     id="metadata4604"><rdf:RDF><cc:Work
         rdf:about=""><dc:format>image/svg+xml</dc:format><dc:type
           rdf:resource="http://purl.org/dc/dcmitype/StillImage" /><dc:title></dc:title></cc:Work></rdf:RDF></metadata><defs
     id="defs4602"><clipPath
       clipPathUnits="userSpaceOnUse"
       id="clipPath4644"><path
         d="m 0,169.535 1453.057,0 L 1453.057,0 0,0 0,169.535 Z"
         id="path4646"
         inkscape:connector-curvature="0" /></clipPath></defs><sodipodi:namedview
     pagecolor="#ffffff"
     bordercolor="#666666"
     borderopacity="1"
     objecttolerance="10"
     gridtolerance="10"
     guidetolerance="10"
     inkscape:pageopacity="0"
     inkscape:pageshadow="2"
     inkscape:window-width="1858"
     inkscape:window-height="1057"
     id="namedview4600"
     showgrid="false"
     inkscape:zoom="4.5946792"
     inkscape:cx="112.98765"
     inkscape:cy="60.247794"
     inkscape:window-x="1912"
     inkscape:window-y="-8"
     inkscape:window-maximized="1"
     inkscape:current-layer="g4606"
     fit-margin-top="0"
     fit-margin-left="0"
     fit-margin-right="0"
     fit-margin-bottom="0" /><g
     id="g4606"
     inkscape:groupmode="layer"
     inkscape:label="Vector Smart Object"
     transform="matrix(1.25,0,0,-1.25,1.25e-4,129.504)"><path
       inkscape:connector-curvature="0"
       id="path4610"
       style="fill:#008696;fill-opacity:1;fill-rule:nonzero;stroke:none"
       d="m 170.8863,81.2028 0,0.03 -0.023,-0.016 -0.024,0.016 0,-0.03 -34.144,-21.72 0,-4.85 34.168,21.768 z"
       sodipodi:nodetypes="ccccccccc" /><path
       inkscape:connector-curvature="0"
       id="path4618"
       style="fill:#008696;fill-opacity:1;fill-rule:nonzero;stroke:none"
       d="m 170.9101,36.4628 0,0.031 -0.023,-0.015 -0.025,0.015 0,-0.031 -34.143,-21.721 -34.143,21.721 0,0.031 -0.024,-0.015 -0.025,0.015 0,-0.031 -34.143,-21.721 0,-4.847 34.168,21.765 34.167,-21.765 34.168,21.765 z"
       sodipodi:nodetypes="ccccccccccccccccc" /><path
       inkscape:connector-curvature="0"
       id="path4626"
       style="fill:#0b8a9d;fill-opacity:1;fill-rule:nonzero;stroke:none"
       d="m 170.9106,47.6507 0,0.031 -0.024,-0.016 -0.024,0.016 0,-0.031 -34.144,-21.723 -51.238,32.701 0,0.235 -34.193,-21.752 0,-4.848 34.193,21.781 0,-0.236 51.238,-32.729 34.168,21.766 z"
       sodipodi:nodetypes="ccccccccccccccc" /><path
       inkscape:connector-curvature="0"
       id="path4638"
       style="fill:#0b8a9d;fill-opacity:1;fill-rule:nonzero;stroke:none"
       d="m 68.3829,59.4828 -34.192,21.749 -34.191,-21.749 0,-4.85 34.191,21.784 34.192,-21.784 34.194,21.784 0,4.815 z"
       sodipodi:nodetypes="ccccccccc" /><path
       inkscape:connector-curvature="0"
       id="path4662"
       style="fill:#0b8a9d;fill-opacity:1;fill-rule:nonzero;stroke:none"
       d="m 170.9101,92.4043 -0.023,0.016 0,-0.032 -34.145,-21.72 -34.19,21.752 0,-4.819 34.19,-21.781 34.168,21.766 0.025,4.802 0,0.032 z"
       sodipodi:nodetypes="ccccccccccc" /><path
       inkscape:connector-curvature="0"
       id="path4670"
       style="fill:#0b8a9d;fill-opacity:1;fill-rule:nonzero;stroke:none"
       d="m 136.7187,76.6132 0,0.391 34.168,21.765 0.023,4.803 0,0.031 -0.023,-0.015 -0.024,0.015 0,-0.031 -34.144,-21.719 0,-0.39 -34.142,21.72 0,0.03 -0.025,-0.016 -0.024,0.016 0,-0.03 -34.144,-21.72 0,-4.85 34.168,21.766 z"
       sodipodi:nodetypes="ccccccccccccccccccc" /></g></svg>